<?xml version="1.0" encoding="UTF-8"?>
<svg version="1.1" xmlns="http://www.w3.org/2000/svg" width="777" height="785">
<path d="M0 0 C256.41 0 512.82 0 777 0 C777 259.05 777 518.1 777 785 C520.59 785 264.18 785 0 785 C0 525.95 0 266.9 0 0 Z " fill="#FCFCFD" transform="translate(0,0)"/>
<path d="M0 0 C256.41 0 512.82 0 777 0 C777 259.05 777 518.1 777 785 C520.59 785 264.18 785 0 785 C0 525.95 0 266.9 0 0 Z M210 52 C209.20609863 52.4012207 208.41219727 52.80244141 207.59423828 53.21582031 C180.98530095 66.85751928 156.31272202 85.2100041 134 105 C133.05382812 105.83402344 132.10765625 106.66804688 131.1328125 107.52734375 C117.88228398 119.4381374 104.93767679 131.91227229 94 146 C92.40065024 147.8998987 90.79619755 149.7955098 89.1875 151.6875 C60.8221274 185.78723033 39.04939895 225.33518108 24 267 C23.68869141 267.8569043 23.37738281 268.71380859 23.05664062 269.59667969 C-0.01410366 333.86518162 -4.44499831 405.0943129 9 472 C9.18868652 472.97501465 9.37737305 473.9500293 9.57177734 474.95458984 C18.54599103 520.50184799 37.27458732 564.85297565 62 604 C63.00933594 605.60294922 63.00933594 605.60294922 64.0390625 607.23828125 C75.48051589 624.83864466 88.54972954 641.08363433 102.73828125 656.51953125 C104.6796816 658.64870089 106.56663929 660.80918211 108.4375 663 C114.7567516 670.258197 121.68247433 677.04441589 129.0078125 683.28125 C130.40130591 684.48347961 131.7694189 685.71547441 133.1171875 686.96875 C156.36518318 708.572948 186.36603134 730.30865971 216 742 C217.87259899 742.9527258 219.745144 743.90555816 221.6171875 744.859375 C225.39414893 746.66736309 229.2808452 748.20007573 233.16796875 749.75390625 C236 751 236 751 238.29296875 752.4453125 C242.0628591 754.61041547 246.01875476 755.91522504 250.125 757.3125 C251.01026367 757.61663818 251.89552734 757.92077637 252.80761719 758.23413086 C255.53539909 759.16529068 258.26687988 760.08463909 261 761 C262.18964355 761.4012207 262.18964355 761.4012207 263.40332031 761.81054688 C281.89439769 768.00312754 300.78721437 772.69157426 320 776 C321.33902832 776.25527289 322.67756212 776.51315149 324.015625 776.7734375 C343.07922592 780.42900042 362.06281505 781.33145273 381.44702148 781.26074219 C384.93035318 781.25002199 388.41316816 781.26070769 391.89648438 781.2734375 C434.34185451 781.29986686 475.84705296 773.67055931 516 760 C517.24652344 759.57976563 518.49304688 759.15953125 519.77734375 758.7265625 C526.67385591 756.32258669 533.28121657 753.5915123 539.875 750.453125 C542.76120363 749.11104031 545.66496336 747.91757001 548.625 746.75 C584.13794822 732.10500291 618.62470923 708.37555525 646.49951172 682.15966797 C648.89281466 679.91214235 651.28437722 677.77997372 653.8828125 675.76953125 C654.93082031 674.89361328 654.93082031 674.89361328 656 674 C656 673.34 656 672.68 656 672 C656.556875 671.79375 657.11375 671.5875 657.6875 671.375 C660.29099295 669.82697717 661.8518603 667.92444479 663.72265625 665.5703125 C666.09158876 662.65804684 668.83931759 660.10527295 671.5546875 657.51953125 C676.35282515 652.86511662 680.54588866 647.8233403 684.71386719 642.60253906 C686.07167009 640.91069809 687.44489406 639.23223176 688.8203125 637.5546875 C700.34435678 623.43193511 710.53207378 608.63365053 719.83056641 592.95996094 C720.82167751 591.29886701 721.83608292 589.65170629 722.85546875 588.0078125 C728.59381289 578.60292543 733.11497612 568.55729588 737.77978516 558.59179688 C738.76710509 556.49468035 739.77045485 554.40818281 740.79296875 552.328125 C745.0363992 543.54547538 748.111144 534.40773918 751.2421875 525.18652344 C752.13920845 522.59834056 753.12720897 520.05080448 754.125 517.5 C756.86662263 510.03669395 758.53432185 502.22711234 760.39306641 494.50830078 C761.3024692 490.74997243 762.24491198 487.00011521 763.1875 483.25 C763.49042969 482.03828125 763.79335938 480.8265625 764.10546875 479.578125 C764.71103171 477.15587315 765.33564389 474.73831764 765.97753906 472.32543945 C767.05987082 467.98596253 767.69784619 463.6485812 768.25390625 459.21484375 C768.35968491 458.39609268 768.46546356 457.57734161 768.57444763 456.73377991 C768.79603808 455.00877359 769.01524629 453.28345973 769.23217773 451.55786133 C769.55865884 448.96797096 769.89496547 446.37949602 770.23242188 443.79101562 C772.29845206 427.72721933 773.21305708 411.81398752 773.1875 395.625 C773.18623108 394.79107727 773.18496216 393.95715454 773.18365479 393.09796143 C772.97283773 320.01064948 751.75868731 244.46095655 710 184 C709.55333984 183.35047363 709.10667969 182.70094727 708.64648438 182.03173828 C705.15696549 176.97807443 701.59969608 171.97568526 698 167 C697.49001465 166.29488281 696.9800293 165.58976563 696.45458984 164.86328125 C690.80463624 157.09302412 685.04461733 149.62325887 678.44921875 142.625 C676.55797276 140.59801865 674.7525492 138.54720789 672.953125 136.44140625 C668.42216908 131.24138873 663.54144598 126.39153598 658.6574707 121.52709961 C657.06541034 119.94040054 655.4787701 118.34842258 653.89257812 116.75585938 C648.43623494 111.29520216 642.92409439 105.95715326 637 101 C636.06571167 100.21363159 636.06571167 100.21363159 635.11254883 99.41137695 C626.03378062 91.83388663 616.70035896 84.75646892 607 78 C606.21109375 77.4225 605.4221875 76.845 604.609375 76.25 C592.29674697 67.29536143 578.82816311 59.77230731 565.33984375 52.74609375 C561.37532771 50.67341695 557.4667455 48.50784324 553.5625 46.32421875 C550.44251628 44.71191009 547.23869741 43.3505193 544 42 C542.44518498 41.34274951 540.89050521 40.68517899 539.3359375 40.02734375 C537.6823915 39.33049222 536.02874409 38.6338813 534.375 37.9375 C533.12589844 37.4105957 533.12589844 37.4105957 531.8515625 36.87304688 C529.56919838 35.91176453 527.28477961 34.95552243 525 34 C524.12601563 33.63003906 523.25203125 33.26007812 522.3515625 32.87890625 C519.87537999 31.91779124 519.87537999 31.91779124 516.75390625 31.07421875 C514.03799385 30.29703258 511.43051412 29.468918 508.77734375 28.51953125 C486.24548716 20.51621956 462.64421232 15.43164782 439 12 C438.01112793 11.85046875 437.02225586 11.7009375 436.00341797 11.546875 C358.47201695 0.21808581 279.31933413 16.87236969 210 52 Z " fill="#FCFCFC" transform="translate(0,0)"/>
<path d="M0 0 C1.28310059 0.19867676 2.56620117 0.39735352 3.88818359 0.60205078 C19.20628505 3.01888476 34.3186348 6.09872732 49.3125 10.0625 C50.51503418 10.37856201 51.71756836 10.69462402 52.95654297 11.02026367 C59.65880706 12.8602026 65.94571855 15.14018197 72.31787109 17.90771484 C74.59862101 18.83654018 76.72012154 19.52198793 79.11328125 20.06640625 C84.0130951 21.24334646 88.52694689 23.04339005 93.1875 24.9375 C94.06341797 25.28490234 94.93933594 25.63230469 95.84179688 25.99023438 C100.1348109 27.71850613 104.06433084 29.54632349 108 32 C109.65204456 32.70211894 111.31923769 33.36971413 113 34 C116.61479701 35.35554888 119.70132913 37.00094874 123 39 C124.32064713 39.69553162 125.64674899 40.38075226 126.9765625 41.05859375 C148.63452485 52.11638101 168.44811387 65.52750333 187.39648438 80.71679688 C188.85759802 81.88604372 190.3268157 83.04514533 191.796875 84.203125 C203.89990399 93.87122508 214.88602871 104.79334463 225.875 115.6875 C226.74237793 116.54182617 227.60975586 117.39615234 228.50341797 118.27636719 C234.43804236 124.20304089 239.76110185 130.45697302 245 137 C246.58037469 138.83588437 248.16305074 140.66979575 249.75 142.5 C255.94817147 149.90686325 261.22871139 157.9245151 266.60205078 165.93847656 C268.22463279 168.33126079 269.91810013 170.66682752 271.625 173 C286.19140637 193.79381352 297.55217176 217.51553875 307 241 C307.27505371 241.67482422 307.55010742 242.34964844 307.83349609 243.04492188 C330.15820109 298.22831664 339.73013354 361.77392201 332.36376953 421.03417969 C332.01247414 423.89829812 331.69166762 426.76491173 331.37672424 429.63322449 C328.97809995 451.34285408 325.06416394 472.23385152 318.58203125 493.12304688 C318.0254329 494.91798316 317.4811662 496.71672949 316.9375 498.515625 C315.97672295 501.68318682 314.99539956 504.84316138 314 508 C313.69449219 508.97066406 313.38898437 509.94132813 313.07421875 510.94140625 C309.41708648 522.24390147 304.87709892 533.17553058 300 544 C299.68562988 544.70116943 299.37125977 545.40233887 299.04736328 546.12475586 C287.12712154 572.5055685 272.17207958 597.44248129 254 620 C252.9608227 621.30720041 251.92176705 622.61449754 250.8828125 623.921875 C245.01671659 631.26079832 238.99390127 638.37421791 232.57421875 645.234375 C229.28964259 648.76317609 226.12778964 652.39444113 222.97265625 656.0390625 C221 658 221 658 218.80859375 659.0859375 C216.63641939 659.91732123 216.63641939 659.91732123 216 663 C214.57421875 664.4375 214.57421875 664.4375 212.6875 666 C209.18211506 668.95941348 205.83359729 672.03581798 202.5 675.1875 C196.04700991 681.18364124 189.07786551 686.40768408 181.95654297 691.57861328 C180.14264957 692.89636813 178.33815096 694.22599074 176.53515625 695.55859375 C151.51735148 713.89987898 124.19369709 729.59208215 95.2265625 740.74609375 C92.95474382 741.6289676 90.70056666 742.55792447 88.4609375 743.51953125 C56.75377957 757.08275118 21.26907809 764.78775308 -13 768 C-13.8775293 768.08685059 -14.75505859 768.17370117 -15.65917969 768.26318359 C-28.12252272 769.33152494 -40.62493619 769.24276887 -53.125 769.25 C-54.93164124 769.25151062 -54.93164124 769.25151062 -56.77478027 769.25305176 C-79.25514978 769.24032518 -101.02721097 768.37967132 -122.9453125 762.95703125 C-126.28431343 762.13783537 -129.6172859 761.53850207 -133.01293945 761.00927734 C-154.04565254 757.70717897 -174.14093332 750.45278325 -194 743 C-194.76441406 742.7208374 -195.52882812 742.4416748 -196.31640625 742.15405273 C-199.96177724 740.81806847 -203.44158316 739.3742511 -206.875 737.5625 C-211.14428014 735.36838079 -215.47147847 733.5667762 -219.96875 731.89453125 C-222 731 -222 731 -224 729 C-225.66752068 728.26928869 -227.33720433 727.54290867 -229.02001953 726.84814453 C-270.80638222 708.94853615 -310.65575189 675.23495613 -340 641 C-340.85078125 640.03835938 -341.7015625 639.07671875 -342.578125 638.0859375 C-355.25512361 623.67631456 -366.72294392 608.2061269 -377 592 C-377.69867188 590.90816406 -378.39734375 589.81632813 -379.1171875 588.69140625 C-400.90447625 553.89895182 -418.11259238 514.18266504 -427 474 C-427.36085693 472.39801758 -427.36085693 472.39801758 -427.72900391 470.76367188 C-431.83907543 452.2518488 -434.48639133 433.89927895 -436 415 C-436.0942627 413.8970459 -436.18852539 412.7940918 -436.28564453 411.65771484 C-437.03272424 402.30919506 -437.24277733 392.99831217 -437.25 383.625 C-437.25067474 382.82586182 -437.25134949 382.02672363 -437.25204468 381.20336914 C-437.13968393 296.31325092 -407.25306569 211.21902952 -354 145 C-353.28972656 144.10925781 -352.57945312 143.21851563 -351.84765625 142.30078125 C-349.59375726 139.50888106 -347.30289588 136.75160829 -345 134 C-344.57509277 133.4834082 -344.15018555 132.96681641 -343.71240234 132.43457031 C-336.38873131 123.55340033 -328.48971833 115.27934066 -320.375 107.125 C-319.89407898 106.63890259 -319.41315796 106.15280518 -318.91766357 105.65197754 C-313.02662345 99.7109644 -306.9550283 94.14382952 -300.39697266 88.93774414 C-298.17469664 87.14122705 -296.08049391 85.26980861 -294 83.3125 C-255.85925041 49.16873837 -205.79913458 25.08017126 -157 11 C-156.26894043 10.78537109 -155.53788086 10.57074219 -154.78466797 10.34960938 C-105.66243558 -3.91620235 -50.61406335 -7.92647425 0 0 Z M-104.57958984 17.51806641 C-107.49525159 18.09861072 -110.41734316 18.52341504 -113.3605957 18.93579102 C-162.25968567 25.91362989 -209.98883134 45.79109924 -251 73 C-251.71559082 73.47469727 -252.43118164 73.94939453 -253.16845703 74.43847656 C-282.5953532 94.08356019 -311.2308062 118.01103654 -333 146 C-333.99631841 147.21137074 -334.99663253 148.41946147 -336 149.625 C-396.39227811 222.34665368 -427.99461306 320.24384689 -419.38011169 414.68766785 C-414.72215397 461.25805124 -402.62482124 505.90598564 -382 548 C-381.51724609 549.00063477 -381.03449219 550.00126953 -380.53710938 551.03222656 C-369.58853593 573.58227004 -356.04124104 594.7189024 -340 614 C-339.22527344 614.96421875 -338.45054687 615.9284375 -337.65234375 616.921875 C-333.29779344 622.32958413 -328.780431 627.55061859 -324.1015625 632.6796875 C-322.27717206 634.69397731 -320.50906198 636.74148614 -318.75 638.8125 C-311.18000817 647.49416895 -302.81203771 655.59207818 -294 663 C-292.57300781 664.24330078 -292.57300781 664.24330078 -291.1171875 665.51171875 C-278.86351932 676.14097593 -265.55036175 685.11975717 -252 694 C-251.06671875 694.61617187 -250.1334375 695.23234375 -249.171875 695.8671875 C-235.39216937 704.8198705 -220.93481397 712.18944079 -206 719 C-205.33564941 719.30647461 -204.67129883 719.61294922 -203.98681641 719.92871094 C-183.63986723 729.28590828 -162.66407332 736.38582352 -141 742 C-140.0301416 742.2592627 -139.0602832 742.51852539 -138.06103516 742.78564453 C-130.71995363 744.70254273 -123.37606828 746.0087696 -115.875 747.125 C-113.66361495 747.45797867 -111.45265068 747.79376803 -109.2421875 748.1328125 C-108.2816748 748.27605957 -107.32116211 748.41930664 -106.33154297 748.56689453 C-104 749 -104 749 -102 750 C-71.22885956 755.07285422 -34.36323071 754.67451332 -3.70605469 749.44873047 C-0.85393859 748.97577942 2.00221651 748.57850109 4.8671875 748.19140625 C17.03153915 746.48693437 28.90707083 743.97859878 40.8125 741 C41.48450439 740.8325528 42.15650879 740.66510559 42.84887695 740.49258423 C51.37248244 738.35344383 59.69362159 735.86027791 68 733 C69.30689116 732.5818801 70.61525997 732.16831772 71.92578125 731.76171875 C80.1941377 729.13911434 87.97005619 725.88712676 95.76806641 722.07910156 C98.28709053 720.86119666 100.8201474 719.67578343 103.35546875 718.4921875 C138.73550345 701.91286189 170.83439666 681.0676396 199.47949219 654.40283203 C200.98640572 653.01254219 202.50925246 651.64236717 204.0390625 650.27734375 C211.16325251 643.89841475 217.63310091 637.12899761 224 630 C224.74765625 629.20207031 225.4953125 628.40414062 226.265625 627.58203125 C232.57139743 620.81126481 238.03007256 613.490302 243.49462891 606.04052734 C244.92264834 604.10485001 246.36950177 602.18518905 247.82421875 600.26953125 C268.95602254 572.27636244 284.04837863 540.63810424 295.98046875 507.80493164 C296.67055227 505.90637572 297.36602506 504.00977149 298.06640625 502.11499023 C307.15417498 477.44788664 311.94701952 451.05524016 315 425 C315.07978088 424.35915466 315.15956177 423.71830933 315.24176025 423.05804443 C316.81101195 410.35202869 317.40298168 397.79851137 317.375 385 C317.37445618 384.05178375 317.37391235 383.1035675 317.37335205 382.12661743 C317.27018145 342.5829777 310.85561344 303.03271515 297.9375 265.625 C297.70078583 264.93745636 297.46407166 264.24991272 297.22018433 263.54153442 C281.49673806 218.10466392 257.1696466 175.80022723 225 140 C224.369729 139.28763184 223.73945801 138.57526367 223.09008789 137.84130859 C217.30127971 131.33365498 211.28081177 125.09760453 205.125 118.9375 C204.20847656 118.00873047 203.29195312 117.07996094 202.34765625 116.12304688 C196.20970736 109.97214872 189.78657902 104.41794115 183 99 C181.78679644 97.97579335 180.57780767 96.94655186 179.375 95.91015625 C163.29150933 82.24865005 144.48735111 68.97378944 125.5 59.6875 C124.27722826 59.08617228 123.05457672 58.48460011 121.83203125 57.8828125 C121.20377441 57.57504883 120.57551758 57.26728516 119.92822266 56.95019531 C117.99198469 55.99605019 116.0633992 55.02797407 114.13671875 54.0546875 C94.51022242 43.99734383 94.51022242 43.99734383 74 36 C73.27312988 35.75958984 72.54625977 35.51917969 71.79736328 35.27148438 C44.23043965 25.71044321 44.23043965 25.71044321 15.671875 20.484375 C12.32481076 20.04284738 9.20996404 19.35600283 5.93359375 18.55859375 C-28.07360455 10.53898579 -70.43544038 10.39560873 -104.57958984 17.51806641 Z " fill="#077BC5" transform="translate(439,12)"/>
<path d="M0 0 C3.52257484 0.76195077 6.99625594 1.20646836 10.57641602 1.61352539 C19.18825598 2.68724376 27.29074653 5.00032085 35.59204102 7.47290039 C37.14558172 7.92831547 38.69929438 8.38314438 40.25317383 8.83740234 C43.97391947 9.92869109 47.69020582 11.03431077 51.4050293 12.14556885 C54.03733548 12.93013477 56.67442884 13.69818541 59.31079102 14.46899414 C68.35344057 17.16141869 76.78646542 20.48523925 85.22973633 24.68530273 C87.65812587 25.8781663 90.10369718 27.03058534 92.55297852 28.17993164 C101.63125281 32.44364059 110.62700955 36.74856736 119.34204102 41.72290039 C120.36426758 42.27848633 121.38649414 42.83407227 122.43969727 43.40649414 C152.83371139 60.19124821 179.65750399 83.0123552 204.15454102 107.41040039 C205.49887207 108.74760132 205.49887207 108.74760132 206.87036133 110.11181641 C259.85588393 163.23084117 295.25824214 238.05822314 305.00219727 312.16040039 C305.24037025 313.95627941 305.49147952 315.75046804 305.75219727 317.54321289 C312.84348753 366.99058821 308.52363492 418.86583309 294.34204102 466.72290039 C294.05876953 467.70057373 294.05876953 467.70057373 293.76977539 468.69799805 C281.89586272 509.45081689 263.74011461 549.02640158 237.82250977 582.79370117 C236.19314324 584.91692912 234.58078841 587.0526252 232.96704102 589.18774414 C226.31196946 597.92947419 219.40145561 606.23065687 211.80981445 614.16967773 C210.29974621 615.76765747 208.82170477 617.39047259 207.34985352 619.02368164 C200.71349758 626.37584985 193.78084733 633.18688419 186.34204102 639.72290039 C185.80353516 640.20082031 185.2650293 640.67874023 184.71020508 641.17114258 C152.68224054 669.53449471 115.17127331 692.18729928 75.34204102 707.72290039 C73.6960976 708.4101368 72.05024896 709.09760029 70.40454102 709.78540039 C35.30467226 723.62511374 -5.309488 732.94822466 -43.16186523 732.85571289 C-44.03533096 732.85707748 -44.90879669 732.85844208 -45.80873108 732.85984802 C-48.61268047 732.86185352 -51.41652061 732.85560204 -54.22045898 732.84790039 C-55.17627869 732.84668182 -56.13209839 732.84546326 -57.11688232 732.84420776 C-103.2848734 732.77501142 -103.2848734 732.77501142 -116.50024414 729.24047852 C-119.90916478 728.42276956 -123.36336548 727.9520287 -126.82788086 727.43017578 C-138.64107741 725.64003685 -149.92150497 722.99870503 -161.32250977 719.44897461 C-163.45955758 718.78458195 -165.60160945 718.1421472 -167.74780273 717.50805664 C-183.78556557 712.71307432 -199.60612713 707.06005288 -214.65795898 699.72290039 C-216.42384474 698.89905008 -218.1908833 698.07766856 -219.95874023 697.25805664 C-251.30730696 682.64196377 -280.6426465 663.50754292 -306.11499023 640.04711914 C-308.22147066 638.12184133 -310.35812378 636.25695858 -312.53295898 634.41040039 C-316.24316001 631.182143 -319.7361678 627.75333572 -323.22045898 624.28540039 C-324.01589111 623.49685669 -324.01589111 623.49685669 -324.82739258 622.69238281 C-343.50920333 603.93860823 -359.74348713 582.18772944 -373.65795898 559.72290039 C-374.07255371 559.05742188 -374.48714844 558.39194336 -374.91430664 557.70629883 C-387.83397425 536.8238555 -397.87327528 514.61708223 -406.65795898 491.72290039 C-407.00729492 490.81556152 -407.35663086 489.90822266 -407.71655273 488.97338867 C-417.86313662 462.27748197 -423.2405697 433.99741541 -426.65795898 405.72290039 C-426.74053955 405.08744293 -426.82312012 404.45198547 -426.90820312 403.79727173 C-428.43270883 392.04633096 -428.98336243 380.50446305 -428.90795898 368.66040039 C-428.90552185 367.81694061 -428.90308472 366.97348083 -428.90057373 366.10446167 C-428.85269815 351.90399492 -428.2194173 337.84463057 -426.65795898 323.72290039 C-426.57787598 322.95558594 -426.49779297 322.18827148 -426.4152832 321.39770508 C-425.36302607 311.41131569 -423.70027174 301.55113122 -421.65795898 291.72290039 C-421.48925293 290.9057959 -421.32054687 290.08869141 -421.14672852 289.24682617 C-413.87040064 254.5009001 -401.52315775 221.80524856 -384.6730957 190.60473633 C-383.79849832 188.98342882 -382.9324784 187.35749959 -382.06811523 185.73071289 C-369.02000332 161.36941807 -352.68944719 139.58712995 -334.65795898 118.72290039 C-333.99022461 117.94172852 -333.32249023 117.16055664 -332.63452148 116.35571289 C-322.06707211 104.28459483 -310.64165082 92.39771627 -297.96655273 82.53930664 C-295.7295375 80.77921851 -293.67399215 78.91579032 -291.59545898 76.97290039 C-270.86009043 58.35187175 -244.84574211 42.49012184 -219.65795898 30.72290039 C-218.87130859 30.35422852 -218.0846582 29.98555664 -217.27416992 29.60571289 C-206.23659144 24.46433206 -195.11468065 19.83712565 -183.65795898 15.72290039 C-182.60608398 15.3168457 -181.55420898 14.91079102 -180.47045898 14.49243164 C-158.60416046 6.21217889 -135.03189212 0.62512907 -111.78295898 -1.88256836 C-108.63309157 -2.1771058 -108.63309157 -2.1771058 -105.65795898 -3.27709961 C-71.8872012 -7.97414917 -33.18227574 -8.15867423 0 0 Z M-112.65795898 10.72290039 C-113.7663916 10.89982422 -114.87482422 11.07674805 -116.0168457 11.2590332 C-154.52894064 17.51475013 -192.43579904 29.60511059 -226.60913086 48.58520508 C-228.4670063 49.61686613 -230.33395544 50.62915744 -232.20483398 51.63696289 C-251.62924488 62.35230693 -269.65953599 75.52285723 -286.65795898 89.72290039 C-287.65698242 90.53500977 -288.65600586 91.34711914 -289.68530273 92.18383789 C-297.57646953 98.68589155 -304.87149093 105.74803139 -312.09545898 112.97290039 C-312.56795074 113.44448578 -313.0404425 113.91607117 -313.5272522 114.40194702 C-319.12242739 119.9983389 -324.55606059 125.6722724 -329.65795898 131.72290039 C-330.43103394 132.63579834 -330.43103394 132.63579834 -331.21972656 133.56713867 C-339.60783239 143.56175979 -347.33823256 153.92493551 -354.65795898 164.72290039 C-355.11912109 165.39901367 -355.5802832 166.07512695 -356.05541992 166.77172852 C-395.27919669 224.61914379 -416.11015455 293.8320321 -416.09545898 363.59790039 C-416.09652649 364.68428802 -416.09759399 365.77067566 -416.09869385 366.88998413 C-416.07111343 386.48801757 -414.49561663 405.43659334 -411.01861572 424.71282959 C-410.66669967 426.67418536 -410.32985835 428.63822703 -409.9934082 430.60229492 C-401.41353647 479.95423126 -381.14014282 529.20537136 -351.65795898 569.72290039 C-351.17327148 570.39160156 -350.68858398 571.06030273 -350.18920898 571.74926758 C-343.39294524 581.08085627 -336.22901937 590.0113277 -328.65795898 598.72290039 C-328.08045898 599.40094727 -327.50295898 600.07899414 -326.90795898 600.77758789 C-316.8673607 612.47488489 -306.21720323 623.52586862 -294.65795898 633.72290039 C-294.14974609 634.17584473 -293.6415332 634.62878906 -293.11791992 635.09545898 C-275.99088935 650.29337603 -256.62876655 663.55138511 -236.65795898 674.72290039 C-235.74530273 675.2346582 -234.83264648 675.74641602 -233.89233398 676.27368164 C-217.53638339 685.31618576 -200.42397336 693.82349867 -182.65795898 699.72290039 C-181.09264358 700.26004562 -179.5275636 700.79787714 -177.96264648 701.33618164 C-156.77849469 708.61067883 -156.77849469 708.61067883 -134.90014648 713.19946289 C-132.42879224 713.59845261 -130.04018242 714.06744343 -127.60327148 714.62133789 C-81.26099123 725.02409774 -29.32384156 723.61784115 16.70678711 712.36401367 C19.42921298 711.70169291 22.15883404 711.08171027 24.89282227 710.46899414 C38.81152661 707.31374177 52.31802965 703.61999873 65.43579102 697.92602539 C70.30773124 695.90914691 75.31876789 694.31716615 80.34204102 692.72290039 C80.34204102 692.06290039 80.34204102 691.40290039 80.34204102 690.72290039 C81.06842773 690.60084229 81.79481445 690.47878418 82.54321289 690.35302734 C85.31771512 689.72837711 87.55653511 688.85194774 90.12329102 687.64086914 C91.03691406 687.20983887 91.95053711 686.77880859 92.8918457 686.3347168 C93.86541016 685.86469238 94.83897461 685.39466797 95.84204102 684.91040039 C96.85943359 684.41975098 97.87682617 683.92910156 98.92504883 683.42358398 C128.11211208 669.15565951 155.01209533 650.7237025 179.01782227 628.82836914 C181.05478026 626.98312484 183.12474949 625.19208369 185.21704102 623.41040039 C193.65366527 616.03048462 201.30796764 608.06042303 208.27563477 599.28540039 C210.16024988 596.94833515 212.11985853 594.74138058 214.15454102 592.53540039 C224.02784914 581.52361936 232.34077761 569.12931797 240.34204102 556.72290039 C240.76227539 556.07853027 241.18250977 555.43416016 241.61547852 554.77026367 C247.48402161 545.75182454 252.68558986 536.59125003 257.3137207 526.87817383 C258.41838645 524.56288674 259.54001661 522.25623132 260.66235352 519.94946289 C264.98748762 511.00379363 268.95842706 502.07106011 272.34204102 492.72290039 C272.80094727 491.5227832 273.25985352 490.32266602 273.73266602 489.08618164 C279.69873607 473.17478182 284.3773987 456.92087314 287.80395508 440.28588867 C288.31342699 437.85919354 288.86399588 435.44601291 289.42797852 433.03149414 C294.5101711 410.63455378 295.61893038 387.7350547 295.59204102 364.84790039 C295.5913562 364.02294067 295.59067139 363.19798096 295.58996582 362.34802246 C295.54610166 346.37748053 295.04149358 330.42555248 292.77954102 314.59790039 C292.53107422 312.85440308 292.53107422 312.85440308 292.27758789 311.07568359 C290.22197402 297.6564015 286.84938466 284.58009693 283.34594727 271.47827148 C282.65534286 268.89488702 281.9745875 266.31066802 281.30688477 263.72143555 C279.62817068 257.24410262 277.8764788 250.9190425 275.34204102 244.72290039 C274.63156543 242.88598554 273.92201578 241.04871243 273.21313477 239.21118164 C260.30545449 206.28271771 243.96007579 175.78555685 222.34204102 147.72290039 C221.78258789 146.98040039 221.22313477 146.23790039 220.64672852 145.47290039 C211.74720345 133.77883847 201.92516436 122.96843724 191.50537109 112.62548828 C189.76949371 110.90041562 188.04469011 109.16478048 186.32055664 107.42797852 C179.63657697 100.73556548 172.78472551 94.57280119 165.34204102 88.72290039 C164.04049842 87.66292906 162.74079147 86.60069649 161.44360352 85.53540039 C140.96153418 68.90593814 118.22195789 54.01476717 94.34204102 42.72290039 C93.57102051 42.35793457 92.8 41.99296875 92.00561523 41.61694336 C70.94577049 31.7123038 50.24528485 24.07229392 27.61254883 18.56982422 C24.29317056 17.710245 21.04213795 16.70433163 17.76782227 15.68774414 C8.81793008 13.09873243 -0.3010817 12.11818359 -9.53295898 11.03540039 C-11.28048062 10.82223652 -13.02787771 10.60804897 -14.77514648 10.39282227 C-18.70432021 9.91069463 -22.63434896 9.43707868 -26.56629944 8.9781189 C-28.56409607 8.73435328 -30.55720455 8.45304334 -32.54980469 8.16992188 C-37.42907218 7.56068816 -42.29704931 7.54262704 -47.20874023 7.51977539 C-48.71392967 7.50925392 -48.71392967 7.50925392 -50.24952698 7.4985199 C-53.48988337 7.48103217 -56.73005706 7.47466287 -59.97045898 7.47290039 C-61.07609192 7.47222565 -62.18172485 7.4715509 -63.32086182 7.47085571 C-79.97001053 7.4870217 -96.20102438 7.99196308 -112.65795898 10.72290039 Z " fill="#F5F8F9" transform="translate(447.657958984375,31.277099609375)"/>
<path d="M0 0 C16.17 0 32.34 0 49 0 C49.06777851 26.91258554 49.12301767 53.82510173 49.15543652 80.73775101 C49.17089072 93.23437816 49.19195263 105.73094843 49.22631836 118.22753906 C49.25626495 129.12238757 49.27558551 140.01719487 49.28226548 150.91208339 C49.28616881 156.67826996 49.29531213 162.44433865 49.31719017 168.21048737 C49.33763837 173.64410443 49.34381698 179.07755569 49.33932304 184.51120758 C49.34014452 186.4992971 49.34606025 188.4873925 49.35761642 190.47544861 C49.4142118 200.71914305 49.32152038 210.17418538 46 220 C45.62359375 221.11375 45.2471875 222.2275 44.859375 223.375 C34.09231155 248.85199521 16.84132943 263.69187041 -8.25390625 274.38671875 C-16.00210183 277.09621046 -23.471429 277.37034801 -31.625 277.4375 C-33.18045532 277.45296875 -33.18045532 277.45296875 -34.76733398 277.46875 C-55.14561317 277.23646375 -74.97604271 268.36563412 -89.6640625 254.390625 C-106.64672788 237.01037214 -114 217.22784092 -114 193 C-98.49 193 -82.98 193 -67 193 C-66.01 197.62 -65.02 202.24 -64 207 C-61.22265632 213.66562484 -58.08063043 219.19812182 -51.6875 222.9375 C-50.800625 223.618125 -49.91375 224.29875 -49 225 C-48.625 228.75 -48.625 228.75 -49 232 C-55.73299208 231.57918799 -60.92262534 226.40154519 -65.25 221.625 C-70.72087308 214.83100816 -72.23796763 208.81016183 -74 200 C-84.56 200 -95.12 200 -106 200 C-102.7084249 221.39523813 -95.39611501 239.25070434 -78.38671875 253.1328125 C-75.97679428 254.8643601 -73.53412073 256.45713108 -71 258 C-70.28457031 258.45890625 -69.56914062 258.9178125 -68.83203125 259.390625 C-58.95926117 265.36104334 -48.28121955 267.11979674 -37 269 C-37 256.46 -37 243.92 -37 231 C-38.65 230.67 -40.3 230.34 -42 230 C-44.64666169 227.78252669 -45.82076491 226.08627325 -46.38671875 222.65625 C-46.63532329 216.96406334 -45.94013603 213.36609668 -42 209 C-39.07327328 206.62697833 -37.31690796 206.04033374 -33.5625 205.5625 C-28.36363233 206.20095743 -25.44661514 208.26406184 -22.125 212.25 C-20.61342124 215.9449703 -20.41566918 219.06177038 -21 223 C-22.43150821 226.31507163 -23.50240355 227.68809786 -26.5690918 229.61035156 C-29.42733251 232.4200794 -29.61462468 234.16183833 -29.71894836 238.09442139 C-29.71501572 238.88310608 -29.71108307 239.67179077 -29.70703125 240.484375 C-29.72971321 241.70776581 -29.72971321 241.70776581 -29.75285339 242.95587158 C-29.79575215 245.55419513 -29.80456998 248.15135751 -29.8125 250.75 C-29.83564278 252.51435383 -29.86100767 254.27868002 -29.88867188 256.04296875 C-29.95154517 260.3620819 -29.98386346 264.68046959 -30 269 C-25.71 268.67 -21.42 268.34 -17 268 C-17.02618408 266.62223389 -17.05236816 265.24446777 -17.0793457 263.82495117 C-17.16974244 258.72062373 -17.22721144 253.6163672 -17.2746582 248.51147461 C-17.2998263 246.30074167 -17.3339638 244.09009212 -17.37719727 241.87963867 C-17.43774679 238.70470633 -17.4661867 235.53087239 -17.48828125 232.35546875 C-17.51408768 231.36475876 -17.5398941 230.37404877 -17.56648254 229.35331726 C-17.56752772 226.80516926 -17.5282142 224.49269247 -17 222 C-14.15011253 219.38827131 -12.841504 219 -9 219 C-9 234.18 -9 249.36 -9 265 C-6.03 264.01 -3.06 263.02 0 262 C0.17118695 251.38524868 0.2711227 240.77237222 0.28240681 230.15617752 C0.28983786 225.2252425 0.32095443 220.29692313 0.40795898 215.36669922 C0.49117659 210.60003464 0.50987899 205.83691924 0.48558617 201.06963348 C0.48736555 199.25959542 0.51162265 197.44942296 0.55968666 195.64002228 C0.99561222 184.72080522 0.99561222 184.72080522 -3.79849243 175.31433105 C-6.46044195 172.68377631 -9.32235605 170.41382881 -12.35526466 168.22814178 C-14.94209233 166.2965294 -17.22173193 164.09649935 -19.5625 161.875 C-22.25996355 159.39133205 -24.63551546 157.48006803 -28 156 C-28.226875 156.598125 -28.45375 157.19625 -28.6875 157.8125 C-30.46043098 160.76738497 -31.81574678 161.64499863 -35 163 C-39.2963693 163.57700786 -42.85007382 163.47496951 -46.875 161.8125 C-49.98105182 159.1632205 -51.69533521 157.01004455 -52.3203125 152.88671875 C-52.59528454 147.4331067 -51.64205801 144.26641081 -48 140 C-43.53516204 137.02344136 -39.23316953 137.26093611 -34 138 C-30.62036075 139.64079198 -28.48029826 141.73064031 -27.125 145.3125 C-27.08375 145.869375 -27.0425 146.42625 -27 147 C-26.29488281 147.04898438 -25.58976562 147.09796875 -24.86328125 147.1484375 C-20.97716687 148.30419867 -18.87169026 150.74045829 -16.1875 153.625 C-15.11644317 154.73617071 -14.04353164 155.84555673 -12.96875 156.953125 C-12.45441406 157.48615234 -11.94007813 158.01917969 -11.41015625 158.56835938 C-9.74133681 160.26260405 -7.9984357 161.83411611 -6.1875 163.375 C-2.17285403 166.79207812 1.65715187 170.39270545 5.5 174 C11.40453866 179.5391512 11.40453866 179.5391512 17.4375 184.9375 C18.02273438 185.45828125 18.60796875 185.9790625 19.2109375 186.515625 C21.033344 188.07707872 21.033344 188.07707872 23.2890625 189.546875 C25.62895622 191.2354581 27.3368362 192.63750048 29 195 C30.99003495 207.62835261 23.89301472 221.90460553 17 232 C14.83095265 234.82938233 12.65909452 237.61453262 10 240 C9.34 240 8.68 240 8 240 C8 245.61 8 251.22 8 257 C8.66 257 9.32 257 10 257 C10 256.34 10 255.68 10 255 C11.43763461 253.80247138 12.92779115 252.66778152 14.4375 251.5625 C30.72005681 238.72477185 38.80762035 220.30997585 41.515625 200.1640625 C41.93812129 193.56583879 41.93812129 193.56583879 39.484375 187.59765625 C37.44437207 185.50544852 35.33051063 183.75993734 33 182 C31.74289508 180.90392918 30.4928053 179.79975852 29.25 178.6875 C28.59515625 178.12417969 27.9403125 177.56085938 27.265625 176.98046875 C24.46683784 174.53394273 21.73308502 172.01925056 19 169.5 C15.72160363 166.4805711 12.43418556 163.4779744 9.0625 160.5625 C5.5159759 157.48786269 2.06812832 154.31418397 -1.375 151.125 C-5.42168779 147.37815362 -9.47432989 143.63919613 -13.5625 139.9375 C-14.32691406 139.24527344 -15.09132813 138.55304688 -15.87890625 137.83984375 C-17.87945841 135.95291158 -17.87945841 135.95291158 -20.1081543 134.93652344 C-22.63297719 132.35207445 -22.45454151 130.21601369 -22.45318604 126.71394348 C-22.43254089 125.87634995 -22.41189575 125.03875641 -22.390625 124.17578125 C-22.38496521 123.31438034 -22.37930542 122.45297943 -22.37347412 121.56547546 C-22.3510813 118.81391852 -22.3008808 116.06366337 -22.25 113.3125 C-22.2299387 111.44728443 -22.21168728 109.58204845 -22.1953125 107.71679688 C-22.15120713 103.14402958 -22.08216057 98.5722355 -22 94 C-22.77730469 93.73574219 -23.55460937 93.47148437 -24.35546875 93.19921875 C-28.1274352 91.48874061 -29.58525585 88.73734552 -31 85 C-31.60736763 80.67250563 -31.3304379 78.63639891 -29.3125 74.75 C-25.79119111 70.56249753 -23.59041181 69.20521443 -18.125 68.5 C-13.39365101 68.67921776 -10.35040906 70.78880461 -7 74 C-4.38921397 77.40537308 -4.63969209 80.82042821 -5 85 C-6.58857289 89.13028952 -8.13462649 91.75558957 -12 94 C-12.66 94 -13.32 94 -14 94 C-14 105.88 -14 117.76 -14 130 C-12.02 130.99 -12.02 130.99 -10 132 C-8.70589282 133.18263997 -7.45803517 134.41706632 -6.25 135.6875 C-3.00120651 139.02021066 0.35010483 142.1240649 3.875 145.16015625 C7.97381579 148.70894713 11.97516709 152.36783372 16 156 C16.804375 156.721875 17.60875 157.44375 18.4375 158.1875 C22.02725397 161.40907408 25.61101054 164.63570222 29.15625 167.90625 C29.95893311 168.64609131 29.95893311 168.64609131 30.77783203 169.40087891 C31.81681418 170.35981719 32.85433077 171.32034663 33.89013672 172.28271484 C36.51222457 174.70289927 39.13410968 176.85058226 42 179 C42 174.05 42 169.1 42 164 C40.68 163.34 39.36 162.68 38 162 C36.38769531 160.69067383 36.38769531 160.69067383 34.828125 159.20703125 C34.25046387 158.66288574 33.67280273 158.11874023 33.07763672 157.55810547 C32.4745166 156.98205566 31.87139648 156.40600586 31.25 155.8125 C29.98776895 154.62285939 28.72475468 153.4340492 27.4609375 152.24609375 C26.85862305 151.67874512 26.25630859 151.11139648 25.63574219 150.52685547 C23.16985434 148.22511478 20.62551042 146.02154361 18.0703125 143.8203125 C14.7276226 140.88126817 11.46932989 137.84936396 8.21044922 134.81787109 C6.16548383 132.92714061 4.23229977 131.14399809 1.85916519 129.67293835 C0 128 0 128 -0.49219131 125.63183308 C-0.48666056 124.22010712 -0.48666056 124.22010712 -0.48101807 122.77986145 C-0.48651672 121.69872574 -0.49201538 120.61759003 -0.49768066 119.50369263 C-0.48329956 118.31758392 -0.46891846 117.13147522 -0.45410156 115.90942383 C-0.45468567 114.66052872 -0.45526978 113.41163361 -0.45587158 112.12489319 C-0.45356028 108.69918312 -0.43348497 105.27443424 -0.40557575 101.84889436 C-0.38059042 98.26946478 -0.37822238 94.69002274 -0.37347412 91.11051941 C-0.36103583 84.33187944 -0.32820293 77.55349715 -0.28807616 70.77497071 C-0.24338479 63.05803481 -0.22137808 55.34108667 -0.20129442 47.6240536 C-0.15947078 31.74919438 -0.0861081 15.87469016 0 0 Z " fill="#0E7DC4" transform="translate(366,261)"/>
<path d="M0 0 C1.08265137 -0.00295074 2.16530273 -0.00590149 3.28076172 -0.00894165 C22.10384519 -0.02057241 40.24027964 1.32798872 58.8125 4.3125 C60.42411531 4.54421162 62.03604658 4.77374852 63.6484375 5 C76.91534159 6.97645043 89.90000598 10.76172052 102.8125 14.3125 C103.59512207 14.52632324 104.37774414 14.74014648 105.18408203 14.96044922 C124.39375528 20.30234877 142.96941578 28.4871989 160.8125 37.3125 C161.43060547 37.6105957 162.04871094 37.90869141 162.68554688 38.21582031 C184.07632476 48.65323003 204.47438137 62.16503015 222.8125 77.3125 C223.37308105 77.77543457 223.93366211 78.23836914 224.51123047 78.71533203 C235.41091382 87.75935132 245.884418 97.19745362 255.89916992 107.21386719 C257.37205972 108.6845641 258.85280265 110.14703534 260.33398438 111.609375 C265.84429694 117.08771848 270.99249899 122.74641051 275.83691406 128.83276367 C277.84221192 131.34979411 279.91206617 133.80134119 282 136.25 C294.1854706 151.21163868 304.34848865 167.53288876 313.8125 184.3125 C314.43632568 185.41126465 314.43632568 185.41126465 315.07275391 186.53222656 C325.02007422 204.19319995 333.26070492 222.95082297 339.19311523 242.33325195 C339.84496546 244.41624359 340.54699291 246.47805603 341.25390625 248.54296875 C347.93358607 268.49664489 352.37562151 289.15500944 355.5 309.9375 C355.61956055 310.71134033 355.73912109 311.48518066 355.86230469 312.2824707 C362.51229693 359.29020576 358.39737452 410.56513368 344.56347656 455.84619141 C343.65699967 458.82318411 342.77924882 461.80828404 341.8984375 464.79296875 C341.20455751 467.1124082 340.50924663 469.43142006 339.8125 471.75 C339.4923291 472.82862305 339.1721582 473.90724609 338.84228516 475.01855469 C336.6841401 482.08018833 333.97065928 488.64619905 330.8125 495.3125 C330.16501874 496.78084992 329.52393051 498.25204305 328.890625 499.7265625 C324.63342382 509.55856059 319.95457634 519.05861256 314.8203125 528.46142578 C313.92120996 530.11282973 313.03764158 531.77266953 312.15625 533.43359375 C308.68583404 539.94062368 304.88456212 546.16510121 300.8125 552.3125 C300.4299707 552.8909668 300.04744141 553.46943359 299.65332031 554.06542969 C289.87203987 568.7797436 279.31549387 582.92069692 267.1875 595.7890625 C265.1833352 597.9184876 263.26677938 600.08420217 261.375 602.3125 C254.05086267 610.72039989 246.09381617 618.32628236 237.36328125 625.25390625 C235.08519512 627.09242293 232.95173704 629.00422264 230.8125 631 C208.94476936 650.60285854 182.05111486 666.62908812 155.37890625 678.69140625 C153.06641635 679.74253802 150.77918539 680.85188777 148.52734375 682.02734375 C145.8125 683.3125 145.8125 683.3125 142.8125 683.3125 C142.8125 683.9725 142.8125 684.6325 142.8125 685.3125 C141.95869751 685.6070105 141.95869751 685.6070105 141.08764648 685.9074707 C138.47417031 686.81065537 135.86208428 687.71779812 133.25 688.625 C132.35474609 688.93373047 131.45949219 689.24246094 130.53710938 689.56054688 C126.7522484 690.87762304 123.04574618 692.20927729 119.37890625 693.83203125 C114.46598454 695.87145877 109.43454899 697.26967005 104.3125 698.6875 C102.66677002 699.14431152 102.66677002 699.14431152 100.98779297 699.61035156 C47.00364685 714.34809319 -11.92085291 719.40604766 -66.88964844 706.81542969 C-69.275625 706.29321212 -71.66625396 705.84502353 -74.0703125 705.4140625 C-90.63098075 702.41350634 -106.46342132 697.26650055 -122.1875 691.3125 C-123.37859375 690.88582031 -124.5696875 690.45914063 -125.796875 690.01953125 C-135.89866782 686.37644585 -145.54493658 682.02793979 -155.1875 677.3125 C-156.86392578 676.50425781 -156.86392578 676.50425781 -158.57421875 675.6796875 C-163.98278736 673.03426726 -169.20118752 670.21284359 -174.32421875 667.05078125 C-176.51932178 665.71814708 -178.72286874 664.43205624 -180.95703125 663.16796875 C-191.92437103 656.92655069 -202.1170608 649.90867587 -212.1875 642.3125 C-212.82848633 641.83135742 -213.46947266 641.35021484 -214.12988281 640.85449219 C-222.44647308 634.57856712 -230.1587296 627.81990506 -237.72949219 620.66894531 C-239.79484284 618.74746369 -241.93228237 616.91150078 -244.0625 615.0625 C-270.35927595 591.45954012 -292.5945738 561.17062946 -309.20361328 530.13183594 C-310.14044147 528.39951742 -311.11425346 526.68735123 -312.08984375 524.9765625 C-324.55989188 502.68858282 -332.90197474 478.69060277 -340.1875 454.3125 C-340.54392578 453.12873779 -340.90035156 451.94497559 -341.26757812 450.7253418 C-344.89197927 438.41338658 -347.06793182 425.95595108 -349.1875 413.3125 C-349.38939941 412.17264648 -349.59129883 411.03279297 -349.79931641 409.85839844 C-355.63198396 376.25955383 -355.82334717 339.94112492 -350.1875 306.3125 C-349.89331002 304.37648726 -349.60035927 302.44028585 -349.30859375 300.50390625 C-341.25756936 249.08928951 -321.19195202 200.40713207 -292.1875 157.3125 C-291.7327832 156.63654785 -291.27806641 155.9605957 -290.80957031 155.26416016 C-282.20326788 142.59946683 -272.41554084 130.69611276 -262.1875 119.3125 C-261.61 118.64347656 -261.0325 117.97445312 -260.4375 117.28515625 C-249.90910308 105.25564024 -238.58455226 93.26225168 -225.9375 83.44921875 C-223.84677475 81.82474899 -221.82591726 80.17280804 -219.8125 78.45703125 C-203.88917993 64.98907877 -186.23304343 53.55595033 -168.05664062 43.36230469 C-166.29527313 42.37303089 -164.54564096 41.36294558 -162.796875 40.3515625 C-145.05738371 30.42878769 -125.57676793 22.38952986 -106.1875 16.3125 C-105.43645996 16.07370117 -104.68541992 15.83490234 -103.91162109 15.58886719 C-81.62452592 8.59665951 -58.40230517 3.88300563 -35.1875 1.3125 C-34.3828833 1.2189624 -33.5782666 1.1254248 -32.74926758 1.02905273 C-21.87209531 -0.06269344 -10.92081351 0.02615652 0 0 Z M-71.50585938 13.71582031 C-73.88057423 14.24420734 -76.25868775 14.74767899 -78.640625 15.2421875 C-94.06232942 18.5443501 -109.36039962 23.42144942 -123.94702148 29.39697266 C-125.90143288 30.19560431 -127.87331835 30.95120386 -129.84765625 31.69921875 C-139.06641174 35.22372573 -147.6689226 39.53637192 -156.31445312 44.28564453 C-157.90672079 45.15856916 -159.5072131 46.01646461 -161.109375 46.87109375 C-163.82034147 48.32105006 -166.50697936 49.80695288 -169.1875 51.3125 C-169.7949707 51.6532959 -170.40244141 51.9940918 -171.02832031 52.34521484 C-187.51808872 61.65524679 -202.58971387 72.45885618 -217.10888672 84.59863281 C-218.59568075 85.82453064 -220.09938029 87.03003913 -221.61376953 88.22167969 C-229.06200643 94.13609515 -235.78988137 100.60737718 -242.48583984 107.35009766 C-244.30998747 109.18497269 -246.14459873 111.00889332 -247.98046875 112.83203125 C-254.8424992 119.68601453 -261.18850396 126.68211553 -267.1875 134.3125 C-268.18728456 135.52164904 -269.19068967 136.72782242 -270.19921875 137.9296875 C-278.6736072 148.18513911 -286.01748138 159.11696998 -293.1875 170.3125 C-293.82316895 171.3015332 -293.82316895 171.3015332 -294.47167969 172.31054688 C-323.60169926 218.05436278 -344.31110908 274.70177146 -346.046875 329.31640625 C-346.1875 332.3125 -346.1875 332.3125 -346.68359375 335.04345703 C-347.67954333 341.50458345 -347.43252282 348.09788681 -347.4375 354.625 C-347.43817474 355.41750153 -347.43884949 356.21000305 -347.43954468 357.02651978 C-347.40661637 381.607347 -345.23778103 405.65850784 -339.77539062 429.66992188 C-339.24815473 432.03985599 -338.77433574 434.41061757 -338.328125 436.796875 C-333.84835172 460.06643518 -324.75820415 482.73357846 -315.1875 504.3125 C-314.85041016 505.08303711 -314.51332031 505.85357422 -314.16601562 506.64746094 C-294.75928833 550.75544864 -262.48223175 593.5729856 -225.1875 624.3125 C-224.64963867 624.76415527 -224.11177734 625.21581055 -223.55761719 625.68115234 C-193.68920701 650.73997452 -159.47042317 670.72258076 -122.88085938 684.17041016 C-119.70520158 685.34161459 -116.56736261 686.5570676 -113.4609375 687.90234375 C-98.6746064 694.27211168 -82.22228496 698.32324297 -66.34765625 700.78125 C-62.97287792 701.34857986 -59.65484768 702.07872444 -56.3125 702.8125 C-38.42160773 706.37546127 -20.21534104 706.66159316 -2.03027344 706.62817383 C1.54523312 706.62501525 5.11990729 706.64858363 8.6953125 706.67382812 C29.76526425 706.73267037 50.49133379 704.84099067 71.125 700.5 C72.37933838 700.24138184 73.63367676 699.98276367 74.92602539 699.71630859 C85.72546592 697.43496046 96.30841151 694.69859437 106.8125 691.3125 C108.1735083 690.87599121 108.1735083 690.87599121 109.56201172 690.43066406 C124.37573009 685.61754257 138.6821024 679.85715665 152.8125 673.3125 C153.72354492 672.89129883 154.63458984 672.47009766 155.57324219 672.03613281 C184.73879902 658.3866105 211.72441989 640.10146685 235.5 618.40625 C237.46905591 616.62345614 239.47140202 614.90131553 241.5 613.1875 C251.04996375 604.84098697 260.0127719 595.72878247 267.85546875 585.76171875 C269.6723049 583.48795374 271.57662944 581.37566269 273.5625 579.25 C301.27578723 548.29249859 320.36154869 508.1765576 333.8125 469.3125 C334.08288086 468.53326172 334.35326172 467.75402344 334.63183594 466.95117188 C346.68267023 431.68451397 352.05974249 394.55371926 352 357.375 C351.99906342 356.61248932 351.99812683 355.84997864 351.99716187 355.06436157 C351.91739325 324.87763879 347.72213281 295.64535228 340.1875 266.4375 C339.99372772 265.68552338 339.79995544 264.93354675 339.60031128 264.15878296 C337.67304185 256.73679307 335.68721265 249.43377208 332.8125 242.3125 C332.22155732 240.73315147 331.63459506 239.15231012 331.05078125 237.5703125 C318.63537755 204.3452194 302.16834425 173.6763528 280.8125 145.3125 C280.32749023 144.66764648 279.84248047 144.02279297 279.34277344 143.35839844 C273.34697481 135.43996638 266.97524119 128.00153284 260.16992188 120.77148438 C258.82804008 119.32920279 257.51531917 117.85996818 256.203125 116.390625 C245.71858045 104.66530594 234.20948515 93.99612142 221.8125 84.3125 C221.20744629 83.83490234 220.60239258 83.35730469 219.97900391 82.86523438 C204.61333496 70.759635 188.5557901 60.10916925 171.60742188 50.35839844 C169.22988173 48.97300916 166.89837489 47.5167705 164.5625 46.0625 C155.20254734 40.43066408 144.91400509 36.40607775 134.8125 32.3125 C133.63816406 31.81234375 132.46382812 31.3121875 131.25390625 30.796875 C103.54308565 19.25213352 73.50018861 11.83293357 43.69140625 8.671875 C40.8125 8.3125 40.8125 8.3125 37.8125 7.3125 C35.32274422 7.08162774 32.8545484 6.90011069 30.359375 6.765625 C29.23520172 6.70317596 29.23520172 6.70317596 28.08831787 6.63946533 C19.08294304 6.17585951 10.07848933 6.06873702 1.0625 6.0625 C0.17264404 6.06182526 -0.71721191 6.06115051 -1.6340332 6.06045532 C-25.3718026 6.08879529 -48.31099946 8.54663542 -71.50585938 13.71582031 Z " fill="#1482C8" transform="translate(385.1875,38.6875)"/>
<path d="M0 0 C24.10539441 -0.16043524 24.10539441 -0.16043524 34.45898438 -0.1953125 C41.49646214 -0.21913225 48.53372977 -0.24717067 55.57104492 -0.30175781 C61.25099412 -0.34553543 66.93071766 -0.36920401 72.61082268 -0.37950897 C74.76713546 -0.38684343 76.92343728 -0.40116422 79.07965279 -0.42292023 C96.01577498 -0.58685401 109.69946778 1.21147607 125 9 C125.8559375 9.39445312 126.711875 9.78890625 127.59375 10.1953125 C148.00915268 20.22287793 162.11602354 38.98816195 170.08984375 59.8515625 C170.84622748 62.22231749 171.45643576 64.5723522 172 67 C172.20238281 67.78632813 172.40476562 68.57265625 172.61328125 69.3828125 C177.41761284 90.75718569 173.22984349 114.64075818 161.84375 133.19140625 C149.13145686 152.55610703 131.09162866 166.1292428 108.5703125 171.875 C102.53197772 172.98125981 97.2692262 173 91 173 C91 157.16 91 141.32 91 125 C95.455 124.01 95.455 124.01 100 123 C110.31984915 119.0458941 116.31420977 114.00967837 121.140625 104.1875 C123.53282896 98.09825356 124.38865173 92.59864986 124.375 86.125 C124.37338867 85.3299707 124.37177734 84.53494141 124.37011719 83.71582031 C124.2444437 77.71059914 123.29545381 73.10967577 120 68 C119.443125 66.989375 118.88625 65.97875 118.3125 64.9375 C111.76333764 56.61829375 103.52422968 50.07507442 92.72276306 48.71279526 C86.17250979 48.22580134 79.61123641 48.27849465 73.046875 48.29296875 C70.93408799 48.27983432 68.82131349 48.26452479 66.70855713 48.24714661 C61.18484805 48.20748815 55.6614689 48.19711852 50.13763428 48.19311523 C43.49015734 48.18209659 36.84285325 48.13422804 30.19551086 48.09262848 C20.13019366 48.03371832 10.06578423 48.02124398 0 48 C0 32.16 0 16.32 0 0 Z " fill="#1480C5" transform="translate(443,260)"/>
<path d="M0 0 C36.96 0 73.92 0 112 0 C112 4.29 112 8.58 112 13 C113.32 13.66 114.64 14.32 116 15 C119.18377713 18.00690062 119.94797768 19.53179916 120.4375 23.9375 C120.21478044 27.86478831 119.2624198 30.72339201 117 34 C115.35 34.66 113.7 35.32 112 36 C112 40.29 112 44.58 112 49 C91.21 49 70.42 49 49 49 C49 89.59 49 130.18 49 172 C32.665 172.495 32.665 172.495 16 173 C14.35 174.98 12.7 176.96 11 179 C6.65813329 180.4472889 2.53744415 180.52187856 -2 180 C-5.15460202 178.22553637 -6.50737276 176.84450384 -8.3125 173.75 C-9.66917845 168.32328622 -9.79021284 164.58042569 -7.3125 159.625 C-5 157 -5 157 0 155 C0 103.85 0 52.7 0 0 Z " fill="#0F7CC5" transform="translate(180,358)"/>
<path d="M0 0 C53.79 0 107.58 0 163 0 C163 15.84 163 31.68 163 48 C125.38 48 87.76 48 49 48 C49 61.86 49 75.72 49 90 C32.83 90 16.66 90 0 90 C0 60.3 0 30.6 0 0 Z " fill="#0E7CC4" transform="translate(180,260)"/>
<path d="M0 0 C30.69 0 61.38 0 93 0 C93.495 5.94 93.495 5.94 94 12 C95.65 12.99 97.3 13.98 99 15 C101.62415951 19.07197165 102.6885664 22.18003523 102 27 C100.44290808 31.3376132 98.70746129 33.56463921 94.75 36 C90.45133926 37.14630953 87.22773142 37.47128599 83 36 C79.8213759 33.4300486 78.29271891 31.87815673 77 28 C52.745 27.505 52.745 27.505 28 27 C27.9951399 46.22794441 28.01500514 65.45533994 28.0802784 84.68316269 C28.10978812 93.61077746 28.1280936 102.53815385 28.12011719 111.46582031 C28.11319406 119.24628963 28.12719679 127.02639011 28.16643608 134.80676866 C28.1864842 138.92738923 28.19597953 143.04743041 28.18042374 147.16808319 C28.16611526 151.04585773 28.17976274 154.92252405 28.21495247 158.80015564 C28.22292799 160.22395603 28.22064663 161.6478561 28.20739174 163.07161713 C27.77709 170.28712364 27.77709 170.28712364 30.33962631 176.680336 C32.11994115 177.93239121 32.11994115 177.93239121 35 179 C37.73462405 182.99919008 37.66487596 187.32154352 37 192 C34.91548469 196.09458365 33.24091056 198.30363578 29 200 C25.60152007 200.52496844 22.39749965 200.54514176 19 200 C15.72649133 197.5448685 13.23729011 194.93683218 12 191 C11.53314555 186.17583733 11.54115784 183.93467847 13.6875 179.5625 C16 177 16 177 21 176 C21 124.52 21 73.04 21 20 C39.48 19.67 57.96 19.34 77 19 C78.32 17.02 79.64 15.04 81 13 C83.75 12.125 83.75 12.125 86 12 C86 10.68 86 9.36 86 8 C60.26 8 34.52 8 8 8 C8 70.37 8 132.74 8 197 C9.32 197.66 10.64 198.32 12 199 C16 203.44444444 16 203.44444444 16 206 C24.25 206 32.5 206 41 206 C41 151.22 41 96.44 41 40 C43.64 40 46.28 40 49 40 C49 97.42 49 154.84 49 214 C32.665 214.495 32.665 214.495 16 215 C14.35 216.98 12.7 218.96 11 221 C6.01233902 222.66255366 1.01631552 222.83282597 -3.875 220.8125 C-7.0993415 218.06232637 -8.70557458 215.9347956 -9.35546875 211.6640625 C-9.59995715 207.26327137 -9.53241817 203.9928121 -6.75 200.4375 C-4 198 -4 198 0 197 C0 131.99 0 66.98 0 0 Z " fill="#0E7CC4" transform="translate(443,316)"/>
<path d="M0 0 C31.68 0 63.36 0 96 0 C96 1.32 96 2.64 96 4 C94.04690112 5.40113616 92.04291182 6.73339467 90 8 C87.16194928 12.25707608 87.36366921 16.00247522 88 21 C90.1564392 25.46041552 90.1564392 25.46041552 94.25 27.875 C94.8275 27.91625 95.405 27.9575 96 28 C96 29.65 96 31.3 96 33 C75.21 33 54.42 33 33 33 C33 73.59 33 114.18 33 156 C24.75 156 16.5 156 8 156 C6.02 152.535 6.02 152.535 4 149 C2.68 148.34 1.36 147.68 0 147 C0 105.09 0 63.18 0 20 C4.29 20 8.58 20 13 20 C13 54.65 13 89.3 13 125 C10.525 125.99 10.525 125.99 8 127 C6.69934079 128.93383287 6.69934079 128.93383287 6 131 C5.505 131.99 5.505 131.99 5 133 C4.41183841 137.82099665 4.55409737 141.16764843 6.875 145.5 C9.09054487 148.10652338 9.84172773 148.87292337 13.171875 149.23828125 C19.16622263 149.4108458 22.43383865 148.98075605 27 145 C28.9780436 141.04391279 28.56564099 136.30135786 28 132 C25.5659688 128.77655328 23.33795435 127.2253029 20 125 C19.63085651 123.11408043 19.63085651 123.11408043 19.63923645 120.77328491 C19.63511246 119.88704941 19.63098846 119.0008139 19.6267395 118.08772278 C19.63752533 117.11308578 19.64831116 116.13844879 19.65942383 115.13427734 C19.65876671 113.5976519 19.65876671 113.5976519 19.65809631 112.02998352 C19.66019234 108.63177669 19.68356202 105.23405852 19.70703125 101.8359375 C19.7126243 99.48467275 19.71689577 97.1334045 19.71989441 94.78213501 C19.73136603 88.58421224 19.76085324 82.38649934 19.79400635 76.18865967 C19.82465729 69.8679895 19.8383891 63.54728552 19.85351562 57.2265625 C19.88572063 44.81761597 19.93694499 32.40882541 20 20 C25.33841781 19.85158376 30.67563342 19.7427547 36.015625 19.67041016 C37.83159299 19.64025212 39.64741549 19.59931802 41.46289062 19.54736328 C44.07458355 19.47449876 46.68435058 19.44053633 49.296875 19.4140625 C50.10743347 19.38309479 50.91799194 19.35212708 51.75311279 19.32022095 C53.99220735 19.31888664 55.84885675 19.37436325 58 20 C60.43066406 22.95068359 60.43066406 22.95068359 62 26 C65.41457004 28.59036348 68.83282171 28.43108741 73 28 C76.70390021 25.97333762 78.65363011 24.51955484 81 21 C81.31600189 18.85209071 81.31600189 18.85209071 81.25 16.5625 C81.25515625 15.80066406 81.2603125 15.03882813 81.265625 14.25390625 C80.84454682 10.68093407 79.69380739 8.60708147 77 6.25 C72.64634963 4.43597901 68.64487711 4.16728354 64 5 C60.84164831 7.43456276 59.20018505 9.69972243 57 13 C54.59555054 13.36076355 54.59555054 13.36076355 51.54052734 13.34057617 C50.39949554 13.34034958 49.25846375 13.34012299 48.08285522 13.33988953 C46.22813095 13.31666374 46.22813095 13.31666374 44.3359375 13.29296875 C43.07359283 13.28872391 41.81124817 13.28447906 40.51065063 13.28010559 C37.15338649 13.26613137 33.79673068 13.23917302 30.43963623 13.20599365 C27.01449852 13.17531352 23.58929799 13.1616047 20.1640625 13.14648438 C13.44251778 13.1133463 6.72134239 13.06152764 0 13 C0 8.71 0 4.42 0 0 Z " fill="#F3F7FA" transform="translate(188,366)"/>
<path d="M0 0 C11.50998406 -0.06979201 23.01991701 -0.12295876 34.5300703 -0.15543652 C39.8758363 -0.17103139 45.22145653 -0.19215573 50.56713867 -0.22631836 C55.73484525 -0.25913349 60.90241242 -0.27689937 66.07021523 -0.28463173 C68.03279117 -0.29013573 69.99536029 -0.30088265 71.95787621 -0.31719017 C96.80550358 -0.51527824 116.93113535 5.51847016 135.21484375 23.1953125 C150.69384178 38.78285891 158.28888116 57.7638765 158.4375 79.625 C158.20983825 102.16351368 150.84259713 119.86102775 135 136 C134.32453125 136.69996094 133.6490625 137.39992188 132.953125 138.12109375 C125.4705614 145.33642294 112.61953212 154 102 154 C102 154.66 102 155.32 102 156 C99.11788698 156.96070434 97.30149956 157.10581883 94.3125 157.0625 C92.1778125 157.0315625 92.1778125 157.0315625 90 157 C90 152.71 90 148.42 90 144 C91.835625 143.67 93.67125 143.34 95.5625 143 C109.17155653 139.80483021 123.92059204 131.7682154 131.5 119.58984375 C131.87125 118.87957031 132.2425 118.16929687 132.625 117.4375 C134.00748753 114.87002316 134.51644267 114.15687311 137.3359375 113.2421875 C139.09278451 112.95882508 140.85500157 112.70673975 142.62109375 112.48828125 C146.18575499 111.75661843 147.82627566 109.80480559 150 107 C151.72869779 103.54260443 151.48966895 99.78024432 151 96 C149.20606332 93.12970131 148.01736724 91.50868362 145 90 C144.9906543 89.40687012 144.98130859 88.81374023 144.97167969 88.20263672 C144.53777821 66.22254905 140.82776477 47.86960056 124.828125 31.66015625 C112.16727697 19.75126467 96.5716714 12.91916102 79.24072266 12.79467773 C78.38153229 12.78477814 77.52234192 12.77487854 76.63711548 12.76467896 C73.81279199 12.73323068 70.98845171 12.7083728 68.1640625 12.68359375 C66.19965186 12.66300981 64.23524551 12.64201296 62.27084351 12.62062073 C57.1121163 12.56554878 51.95335012 12.51607414 46.79455566 12.46777344 C41.52576242 12.41744951 36.25702548 12.3618204 30.98828125 12.30664062 C20.65890231 12.19924112 10.32947439 12.09775603 0 12 C0 8.04 0 4.08 0 0 Z " fill="#F5F9FA" transform="translate(451,268)"/>
<path d="M0 0 C11.22 0 22.44 0 34 0 C34 48.51 34 97.02 34 147 C32.68 146.34 31.36 145.68 30 145 C29.23405014 144.63408249 28.46810028 144.26816498 27.67893982 143.89115906 C23.99419374 141.50456084 21.50588372 139.17896994 20.48189163 134.7683754 C19.60873285 127.61361586 19.81660336 120.40039232 19.91015625 113.20703125 C19.91171313 110.85389712 19.91015585 108.50075906 19.90562439 106.14762878 C19.90589303 101.22550917 19.93707322 96.30486916 19.99145508 91.38305664 C20.05963252 85.07414619 20.06112499 78.76738873 20.04090214 72.45821095 C20.03088048 67.60333611 20.05077441 62.74895244 20.08028984 57.89417076 C20.09183423 55.56777198 20.09529525 53.24131856 20.0905323 50.91489601 C20.08941978 47.66591749 20.12727654 44.41970532 20.17602539 41.17114258 C20.16859314 40.21050903 20.16116089 39.24987549 20.15350342 38.26013184 C20.30674926 31.86327083 20.30674926 31.86327083 22.34200859 29.32886314 C23.96556091 27.98149109 23.96556091 27.98149109 27 26 C29.54641337 22.52761813 29.43529792 19.20787993 29 15 C26.97333762 11.29609979 25.51955484 9.34636989 22 7 C17.92536476 6.33375155 13.75643297 6.05503906 10.046875 8.05078125 C7.9049774 9.81316786 6.2460516 11.50789679 5 14 C4.63845246 19.51360004 4.73737804 22.37795222 8 27 C8 27.66 8 28.32 8 29 C10.475 29.99 10.475 29.99 13 31 C13 63.01 13 95.02 13 128 C9.61572953 126.30786476 7.56223725 124.90865224 4.8125 122.4375 C3.77029297 121.50744141 3.77029297 121.50744141 2.70703125 120.55859375 C0.00577261 118.09222716 0.00577261 118.09222716 -0.12304783 116.03410244 C-0.12212604 115.16485166 -0.12120424 114.29560087 -0.12025452 113.40000916 C-0.12162918 112.40576431 -0.12300385 111.41151947 -0.12442017 110.387146 C-0.12082489 109.28735413 -0.11722961 108.18756226 -0.11352539 107.05444336 C-0.11367142 105.90337601 -0.11381744 104.75230865 -0.1139679 103.56636047 C-0.11326818 99.74083609 -0.10547302 95.91535969 -0.09765625 92.08984375 C-0.09579228 89.44568407 -0.09436828 86.80152404 -0.09336853 84.15736389 C-0.09025549 77.89584583 -0.08204248 71.63434514 -0.07201904 65.37283474 C-0.06085705 58.24598463 -0.05534724 51.1191337 -0.05032361 43.99227703 C-0.03985984 29.32817443 -0.0215147 14.66409067 0 0 Z " fill="#F6F9FA" transform="translate(374,268)"/>
<path d="M0 0 C11.45805255 -0.13980194 22.91589798 -0.2460247 34.37463379 -0.31087303 C39.69700521 -0.34201715 45.01878771 -0.38417622 50.34082031 -0.45263672 C55.4891325 -0.5184385 60.63688283 -0.55383281 65.7855835 -0.56926346 C67.73737416 -0.58024175 69.68913851 -0.60167582 71.64068604 -0.63438034 C92.12211563 -0.96356514 106.56539525 4.35178168 122.14453125 17.859375 C133.3423755 29.28471495 138.10955872 46.34909697 138.1875 61.875 C138.14037509 63.9170794 138.08374537 65.95909438 138 68 C136.58847656 68.67675781 136.58847656 68.67675781 135.1484375 69.3671875 C131.54809075 71.23436484 129.99632728 72.46803634 128 76 C127.44838664 80.20313842 127.71215853 83.99255484 128.875 88.0625 C129.08018338 92.88430941 126.09131818 95.53070405 123 99 C122.49210938 99.60070312 121.98421875 100.20140625 121.4609375 100.8203125 C115.54831623 107.31545803 107.3104562 112.20714177 99 115 C97.68 115 96.36 115 95 115 C95 115.66 95 116.32 95 117 C93.35 117 91.7 117 90 117 C90 112.71 90 108.42 90 104 C91.815 103.29875 93.63 102.5975 95.5 101.875 C107.36536867 96.89740116 115.32006489 89.15235837 120.95703125 77.58984375 C125.59899957 66.06315838 125.45719295 53.66990138 121.3125 42.02734375 C116.00876838 29.79403421 107.9127862 21.27146362 95.5625 16 C89.41231591 13.64147401 84.23519283 12.84265672 77.65136719 12.79467773 C76.81197601 12.78477814 75.97258484 12.77487854 75.10775757 12.76467896 C72.33749192 12.73313002 69.56720914 12.70833265 66.796875 12.68359375 C64.87444619 12.66301852 62.95202184 12.6420219 61.02960205 12.62062073 C55.97277445 12.56545884 50.91590643 12.51602361 45.85900879 12.46777344 C40.69763597 12.41751546 35.53632179 12.36185182 30.375 12.30664062 C20.2500501 12.19913101 10.12504927 12.09767005 0 12 C0 8.04 0 4.08 0 0 Z " fill="#F5F8FA" transform="translate(451,288)"/>
<path d="M0 0 C48.84 0 97.68 0 148 0 C148 4.29 148 8.58 148 13 C103.45 13 58.9 13 13 13 C13 33.13 13 53.26 13 74 C8.71 74 4.42 74 0 74 C0 49.58 0 25.16 0 0 Z " fill="#F1F7F9" transform="translate(188,268)"/>
<path d="M0 0 C42.24 0 84.48 0 128 0 C128 4.29 128 8.58 128 13 C90.05 13 52.1 13 13 13 C13 26.53 13 40.06 13 54 C8.71 54 4.42 54 0 54 C0 36.18 0 18.36 0 0 Z " fill="#EFF6F9" transform="translate(208,288)"/>
<path d="M0 0 C4.69241302 2.0733918 7.71319554 5.42639108 10 10 C10.13907231 13.12912689 10.19444964 15.49443093 9.0625 18.4375 C8.98415439 21.64967002 9.67133602 22.18374084 11.8125 24.5 C17.34948219 29.59313592 24.08152205 32.27938856 31 35 C31 37.64 31 40.28 31 43 C26.19044061 43.33555065 23.99960836 42.57541547 20 40 C19.11441406 39.46761719 18.22882813 38.93523437 17.31640625 38.38671875 C11.8922093 35.03987383 7.17090066 31.84726293 3 27 C3 26.34 3 25.68 3 25 C2.00419922 25.05220703 2.00419922 25.05220703 0.98828125 25.10546875 C-8.16252822 25.38600451 -8.16252822 25.38600451 -12 22 C-14.46647341 19.00023505 -15.84616697 16.90376905 -16.5 13.0625 C-15.67060833 7.98247604 -13.63515672 4.36999617 -9.6875 1.0625 C-6.21103887 -0.31191486 -3.71226652 -0.39774284 0 0 Z " fill="#137FC5" transform="translate(286,472)"/>
<path d="M0 0 C2.31 0 4.62 0 7 0 C7 13.2 7 26.4 7 40 C9.97 40 12.94 40 16 40 C16 26.8 16 13.6 16 0 C18.31 0 20.62 0 23 0 C23 15.51 23 31.02 23 47 C15.41 47 7.82 47 0 47 C0 31.49 0 15.98 0 0 Z " fill="#087AC5" transform="translate(500,386)"/>
<path d="M0 0 C2.64 1.98 5.28 3.96 8 6 C9.010625 6.721875 10.02125 7.44375 11.0625 8.1875 C13.71334044 12.03549418 13.29572337 14.57653114 12.640625 19.1015625 C10.82255803 27.32720695 7.03460053 35.23925072 2 42 C1.34 42 0.68 42 0 42 C0 28.14 0 14.28 0 0 Z " fill="#F5F9FA" transform="translate(374,448)"/>
<path d="M0 0 C3 0.25 3 0.25 5 2.25 C5.333728 5.38704316 5.52849028 7.41554166 3.8125 10.125 C1.31963619 11.67229478 -0.11967335 11.75405716 -3 11.25 C-4.875 9.5625 -4.875 9.5625 -6 7.25 C-5.67747519 2.7346526 -4.81889451 0.40157454 0 0 Z " fill="#EFF7FA" transform="translate(184,519.75)"/>
<path d="M0 0 C1.8125 1.125 1.8125 1.125 3 3 C3.1875 6.1875 3.1875 6.1875 3 9 C0.51229865 10.56633048 -0.65552204 11.04100928 -3.625 10.6875 C-6 10 -6 10 -8 9 C-8.36190476 3.57142857 -8.36190476 3.57142857 -6.8125 1.125 C-4.34492892 -0.40659584 -2.85480169 -0.42822025 0 0 Z " fill="#E1EFF6" transform="translate(260,377)"/>
<path d="M0 0 C1.8125 1.1875 1.8125 1.1875 3 3 C3.4334014 5.88934264 3.42525784 7.35092224 1.8125 9.8125 C-0.64907776 11.42525784 -2.11065736 11.4334014 -5 11 C-6.8125 9.8125 -6.8125 9.8125 -8 8 C-8.4334014 5.11065736 -8.42525784 3.64907776 -6.8125 1.1875 C-4.35092224 -0.42525784 -2.88934264 -0.4334014 0 0 Z " fill="#EBF5F9" transform="translate(449,520)"/>
<path d="M0 0 C2.5625 0.3125 2.5625 0.3125 4.375 1.5 C5.98775784 3.96157776 5.9959014 5.42315736 5.5625 8.3125 C4.375 10.125 4.375 10.125 2.5625 11.3125 C-0.31629197 11.7443188 -1.80487712 11.69207373 -4.3125 10.1875 C-5.4375 8.3125 -5.4375 8.3125 -5.25 5.25 C-4.27786515 1.7353586 -3.70860904 0.4754627 0 0 Z " fill="#E4F0F7" transform="translate(467.4375,497.6875)"/>
<path d="M0 0 C3.375 -0.125 3.375 -0.125 7 0 C9 2 9 2 9.3125 4.4375 C9 7 9 7 7.8125 8.8125 C5.35092224 10.42525784 3.88934264 10.4334014 1 10 C-0.875 8.8125 -0.875 8.8125 -2 7 C-1.73904456 4.32520673 -1.1995243 2.39904859 0 0 Z " fill="#E3EFF7" transform="translate(201,499)"/>
<path d="M0 0 C3.125 0.1875 3.125 0.1875 6.125 2.1875 C6.5659511 5.05368213 6.54001866 6.55405047 4.9375 9 C2.47592224 10.61275784 1.01434264 10.6209014 -1.875 10.1875 C-3.75 9.0625 -3.75 9.0625 -4.875 7.1875 C-4.32255245 0.28190559 -4.32255245 0.28190559 0 0 Z " fill="#E6F1F6" transform="translate(325.875,406.8125)"/>
<path d="M0 0 C3 0.25 3 0.25 5 2.25 C5.25 5.25 5.25 5.25 5 8.25 C3 10.25 3 10.25 0 10.5 C-3 10.25 -3 10.25 -5 8.25 C-5.25 5.25 -5.25 5.25 -5 2.25 C-3 0.25 -3 0.25 0 0 Z " fill="#EBF4F9" transform="translate(283,479.75)"/>
<path d="M0 0 C2.5625 0.3125 2.5625 0.3125 4.4375 1.4375 C5.5625 3.3125 5.5625 3.3125 5.375 6.4375 C5.106875 7.38625 4.83875 8.335 4.5625 9.3125 C1.77386993 10.70681504 -0.35828868 10.56910094 -3.4375 10.3125 C-5.4375 7.3125 -5.4375 7.3125 -5.1875 4.75 C-4.19253762 1.51637226 -3.41216263 0.43745675 0 0 Z " fill="#E4F1F7" transform="translate(332.4375,474.6875)"/>
<path d="M0 0 C3 0.25 3 0.25 5 2.25 C5.25 5.25 5.25 5.25 5 8.25 C3 10.25 3 10.25 0 10.5 C-3 10.25 -3 10.25 -5 8.25 C-5.25 5.25 -5.25 5.25 -5 2.25 C-3 0.25 -3 0.25 0 0 Z " fill="#EEF5F9" transform="translate(348,337.75)"/>
<path d="M0 0 C3 0.25 3 0.25 5 2.25 C5.3125 5.25 5.3125 5.25 5 8.25 C1.77626323 10.39915785 0.73296326 10.63286803 -3 10.25 C-5 8.25 -5 8.25 -5.25 5.25 C-4.90584825 1.120179 -4.129821 0.34415175 0 0 Z " fill="#EFF7FA" transform="translate(532,334.75)"/>
<path d="M0 0 C2 2 2 2 2.25 5 C2 8 2 8 0 10 C-3 10.25 -3 10.25 -6 10 C-8 8 -8 8 -8.3125 5.5625 C-8 3 -8 3 -6.8125 1.1875 C-4.3864306 -0.40199375 -2.84602594 -0.36487512 0 0 Z " fill="#E9F3F7" transform="translate(290,377)"/>
<path d="M0 0 C3 0.25 3 0.25 5 2.25 C5.36487512 5.09602594 5.40199375 6.6364306 3.8125 9.0625 C1.3864306 10.65199375 -0.15397406 10.61487512 -3 10.25 C-5 8.25 -5 8.25 -5.25 5.25 C-4.90584825 1.120179 -4.129821 0.34415175 0 0 Z " fill="#ECF4F9" transform="translate(391,281.75)"/>
<path d="M0 0 C3.0625 0.1875 3.0625 0.1875 5.0625 2.1875 C5.375 5.1875 5.375 5.1875 5.0625 8.1875 C2.0625 10.1875 2.0625 10.1875 -0.5 9.9375 C-2.9375 9.1875 -2.9375 9.1875 -4.9375 7.1875 C-4.23164336 0.2701049 -4.23164336 0.2701049 0 0 Z " fill="#EAF3F7" transform="translate(589.9375,363.8125)"/>
<path d="M0 0 C0 3 0 3 -1.20581055 4.578125 C-2.03786011 5.40570312 -2.03786011 5.40570312 -2.88671875 6.25 C-3.8003418 7.16265625 -3.8003418 7.16265625 -4.73242188 8.09375 C-5.70018555 9.03734375 -5.70018555 9.03734375 -6.6875 10 C-7.31333984 10.6290625 -7.93917969 11.258125 -8.58398438 11.90625 C-11.80090441 15.08611651 -14.84112518 18.08167216 -19 20 C-19.66 19.67 -20.32 19.34 -21 19 C-7.04255319 6.04255319 -7.04255319 6.04255319 0 0 Z " fill="#2293CC" transform="translate(648,657)"/>
<path d="M0 0 C0.33 0.99 0.66 1.98 1 3 C-4.28 8.28 -9.56 13.56 -15 19 C-15.66 18.67 -16.32 18.34 -17 18 C-16.59160889 17.5968457 -16.18321777 17.19369141 -15.76245117 16.77832031 C-13.90147279 14.93821617 -12.04446276 13.09415612 -10.1875 11.25 C-9.54490234 10.61578125 -8.90230469 9.9815625 -8.24023438 9.328125 C-7.61826172 8.709375 -6.99628906 8.090625 -6.35546875 7.453125 C-5.78465576 6.88754883 -5.21384277 6.32197266 -4.62573242 5.73925781 C-2.92652264 3.92139169 -1.45724172 2.01504683 0 0 Z " fill="#DEECEF" transform="translate(651,635)"/>
<path d="M0 0 C0.33 0.66 0.66 1.32 1 2 C-2.86364295 6.48717034 -6.74790208 10.87675353 -11 15 C-11.66 14.67 -12.32 14.34 -13 14 C-12.278125 13.29875 -11.55625 12.5975 -10.8125 11.875 C-8.83067874 9.91006927 -7.05292847 7.86821544 -5.3125 5.6875 C-4.1678125 4.3571875 -4.1678125 4.3571875 -3 3 C-2.34 3 -1.68 3 -1 3 C-0.67 2.01 -0.34 1.02 0 0 Z " fill="#D1E4EC" transform="translate(668,660)"/>
<path d="M0 0 C0.66 0.33 1.32 0.66 2 1 C0.61714856 2.49131037 -0.78185739 3.96765185 -2.1875 5.4375 C-2.96480469 6.26121094 -3.74210938 7.08492187 -4.54296875 7.93359375 C-7.1461801 10.12294002 -8.66227956 10.67393495 -12 11 C-8.19588166 7.08060535 -4.18423892 3.50897269 0 0 Z " fill="#2695CD" transform="translate(623,679)"/>
<path d="M0 0 C0.99 0.66 1.98 1.32 3 2 C2 5 2 5 0.0625 6.0625 C-0.618125 6.371875 -1.29875 6.68125 -2 7 C-2.66 7.66 -3.32 8.32 -4 9 C-6.125 8.625 -6.125 8.625 -8 8 C-7.05125 7.4225 -6.1025 6.845 -5.125 6.25 C-2.23865902 4.17183449 -1.15904259 3.24531925 0 0 Z " fill="#C9E0EE" transform="translate(602,373)"/>
<path d="M0 0 C0.99 0.33 1.98 0.66 3 1 C2.01 1.495 2.01 1.495 1 2 C0.5359375 3.175625 0.5359375 3.175625 0.0625 4.375 C-0.98373709 6.95982105 -1.92113535 8.2046169 -4 10 C-4.66 9.67 -5.32 9.34 -6 9 C-4.02 6.03 -2.04 3.06 0 0 Z " fill="#1B8BC7" transform="translate(91,199)"/>
<path d="M0 0 C0 3 0 3 -1.75 4.82421875 C-2.4925 5.43910156 -3.235 6.05398437 -4 6.6875 C-4.7425 7.31011719 -5.485 7.93273437 -6.25 8.57421875 C-6.8275 9.04472656 -7.405 9.51523438 -8 10 C-8.66 9.67 -9.32 9.34 -10 9 C-6.7 6.03 -3.4 3.06 0 0 Z " fill="#D0E2E7" transform="translate(147,116)"/>
<path d="M0 0 C-0.804375 0.556875 -1.60875 1.11375 -2.4375 1.6875 C-5.24228216 4.21864487 -5.69381595 5.32579134 -6 9 C-6.66 9 -7.32 9 -8 9 C-8.36190476 3.57142857 -8.36190476 3.57142857 -6.8125 1.125 C-4.43963721 -0.34781139 -2.74086056 -0.22223194 0 0 Z " fill="#B1D4E9" transform="translate(260,377)"/>
<path d="M0 0 C-0.763125 0.5775 -1.52625 1.155 -2.3125 1.75 C-4.66200917 3.71703093 -6.29323505 5.48476744 -8 8 C-8.36075949 3.55063291 -8.36075949 3.55063291 -6.8125 1.1875 C-4.44017475 -0.36678206 -2.77958655 -0.22537188 0 0 Z " fill="#B3D7EC" transform="translate(449,520)"/>
<path d="M0 0 C-1.49097658 3.7952131 -3.75700849 5.61042731 -7 8 C-4.18918919 0 -4.18918919 0 0 0 Z " fill="#2E94CF" transform="translate(282,371)"/>
<path d="M0 0 C0.94875 0.04125 1.8975 0.0825 2.875 0.125 C2.318125 0.351875 1.76125 0.57875 1.1875 0.8125 C-1.75746684 2.48396766 -3.80656544 4.67776352 -6.125 7.125 C-5.03177966 0.20127119 -5.03177966 0.20127119 0 0 Z " fill="#BCDAEE" transform="translate(184.125,519.875)"/>
<path d="M0 0 C-1.49097658 3.7952131 -3.75700849 5.61042731 -7 8 C-4.18918919 0 -4.18918919 0 0 0 Z " fill="#2F90CB" transform="translate(441,514)"/>
<path d="M0 0 C0.78375 0.04125 1.5675 0.0825 2.375 0.125 C1.611875 0.7025 0.84875 1.28 0.0625 1.875 C-2.28700917 3.84203093 -3.91823505 5.60976744 -5.625 8.125 C-4.59375 0.21875 -4.59375 0.21875 0 0 Z " fill="#AED2E9" transform="translate(467.625,497.875)"/>
</svg>
